<svg id="visual" viewBox="0 0 900 600" width="900" height="600" xmlns="http://www.w3.org/2000/svg" xmlns:xlink="http://www.w3.org/1999/xlink" version="1.1"><rect x="0" y="0" width="900" height="600" fill="#fff"></rect><defs><linearGradient id="grad1_0" x1="33.3%" y1="0%" x2="100%" y2="100%"><stop offset="20%" stop-color="#ffffff" stop-opacity="1"></stop><stop offset="80%" stop-color="#ffffff" stop-opacity="1"></stop></linearGradient></defs><defs><linearGradient id="grad2_0" x1="0%" y1="0%" x2="66.7%" y2="100%"><stop offset="20%" stop-color="#ffffff" stop-opacity="1"></stop><stop offset="80%" stop-color="#ffffff" stop-opacity="1"></stop></linearGradient></defs><g transform="translate(900, 0)"><path d="M0 486.7C-64.8 481.6 -129.6 476.4 -186.3 449.7C-242.9 423 -291.4 374.9 -323.9 323.9C-356.3 272.9 -372.8 219 -397.3 164.6C-421.7 110.1 -454.2 55.1 -486.7 0L0 0Z" fill="#FBAE3C"></path></g><g transform="translate(0, 600)"><path d="M0 -486.7C60.4 -473.6 120.8 -460.5 182.2 -439.8C243.5 -419 305.8 -390.7 344.2 -344.2C382.5 -297.7 396.9 -233 416.7 -172.6C436.4 -112.2 461.6 -56.1 486.7 0L0 0Z" fill="#FBAE3C"></path></g></svg>