<svg width="1991" height="1300" viewBox="0 0 1991 1300" fill="none" xmlns="http://www.w3.org/2000/svg">
<rect width="1684.1" height="1071.07" transform="matrix(1 0.00018776 0.000175842 1 155.346 111.39)" fill="white"/>
<ellipse cx="95.7216" cy="91.8918" rx="95.7216" ry="91.8918" transform="matrix(1 0.00018776 0.000175842 1 462.476 242.403)" fill="#FFC01F"/>
<mask id="mask0_206_28" style="mask-type:alpha" maskUnits="userSpaceOnUse" x="3" y="776" width="515" height="523">
<ellipse cx="256.753" cy="260.847" rx="256.753" ry="260.847" transform="matrix(1 0.00018776 0.000175842 1 3.90332 776.787)" fill="#D9D9D9"/>
</mask>
<g mask="url(#mask0_206_28)">
<rect width="1722.15" height="1222.25" transform="matrix(1 0.00018776 0.000175842 1 155.911 -34.0456)" fill="#FFC01F"/>
</g>
<mask id="mask1_206_28" style="mask-type:alpha" maskUnits="userSpaceOnUse" x="1474" y="1" width="514" height="523">
<ellipse cx="1730.77" cy="262.453" rx="256.753" ry="260.847" transform="rotate(179.841 1730.77 262.453)" fill="#D9D9D9"/>
</mask>
<g mask="url(#mask1_206_28)">
<rect x="1838.34" y="1333.87" width="1722.15" height="1222.25" transform="rotate(179.841 1838.34 1333.87)" fill="#FFC01F"/>
</g>
</svg>
